<?xml version="1.0" encoding="UTF-8" standalone="no"?>
<!-- Created with Inkscape (http://www.inkscape.org/) -->

<svg
   xmlns:dc="http://purl.org/dc/elements/1.1/"
   xmlns:cc="http://creativecommons.org/ns#"
   xmlns:rdf="http://www.w3.org/1999/02/22-rdf-syntax-ns#"
   xmlns:svg="http://www.w3.org/2000/svg"
   xmlns="http://www.w3.org/2000/svg"
   xmlns:sodipodi="http://sodipodi.sourceforge.net/DTD/sodipodi-0.dtd"
   xmlns:inkscape="http://www.inkscape.org/namespaces/inkscape"
   width="500"
   height="500"
   viewBox="0 0 500.00001 500.00001"
   id="svg5370"
   version="1.1"
   inkscape:version="0.91 r"
   sodipodi:docname="air.svg">
  <defs
     id="defs5372" />
  <sodipodi:namedview
     id="base"
     pagecolor="#ffffff"
     bordercolor="#666666"
     borderopacity="1.0"
     inkscape:pageopacity="0.0"
     inkscape:pageshadow="2"
     inkscape:zoom="0.35"
     inkscape:cx="-712.14285"
     inkscape:cy="520"
     inkscape:document-units="px"
     inkscape:current-layer="layer1"
     showgrid="false"
     inkscape:window-width="1280"
     inkscape:window-height="977"
     inkscape:window-x="0"
     inkscape:window-y="0"
     inkscape:window-maximized="1"
     units="px" />
  <metadata
     id="metadata5375">
    <rdf:RDF>
      <cc:Work
         rdf:about="">
        <dc:format>image/svg+xml</dc:format>
        <dc:type
           rdf:resource="http://purl.org/dc/dcmitype/StillImage" />
        <dc:title></dc:title>
      </cc:Work>
    </rdf:RDF>
  </metadata>
  <g
     inkscape:label="Layer 1"
     inkscape:groupmode="layer"
     id="layer1"
     transform="translate(0,-552.36216)">
    <path
       style="display:inline;fill-opacity:1"
       d="m 178.45506,1000.1152 c 24.15761,-8.75702 52.11997,-3.74788 77.47148,-8.51886 43.02117,-3.87338 87.58003,2.83878 131.54554,8.75316 21.59874,-10.40751 -7.74189,-39.88235 -18.88443,-53.74072 -35.25431,-43.12451 -69.76658,-88.05189 -91.89275,-138.4289 -21.19847,-23.53224 -36.50275,8.81082 -43.38712,24.20575 -7.72615,17.81627 -21.5652,31.5671 -30.2239,48.81997 -12.28048,19.73953 -22.66242,41.15389 -38.49233,58.11353 -1.21131,22.57702 -31.30268,33.89881 -19.5495,58.74864 8.98804,9.78273 23.8786,4.56353 33.41314,2.04743 z m -101.006913,50.2311 c -26.880373,-5.3946 -28.846898,-38.0565 -6.439417,-44.9838 13.791287,-23.02642 34.67605,-40.09363 50.06419,-61.72823 31.69208,-30.89358 56.32307,-68.50059 79.87721,-106.15882 14.17516,-19.68574 29.04946,-39.18454 40.18009,-60.98816 6.77476,-29.46203 -30.37577,-21.15954 -47.90266,-24.42343 -42.67314,-3.68644 -85.18098,-3.51485 -127.962703,-9.76477 -27.846349,-9.40111 -17.973515,-40.23707 -17.676962,-59.9036 -1.409654,-43.23245 -4.918106,-86.67732 -7.571981,-130.03333 11.671748,1.32323 24.876842,-2.3563 35.454055,5.51775 11.635382,26.03168 10.709484,54.12478 16.593311,81.03728 3.569784,25.94756 14.89171,51.28524 17.11843,77.24907 18.34613,15.51657 46.4131,3.69411 68.48331,8.26022 18.77841,-4.25239 61.06831,14.15545 60.73872,-14.08374 -6.82432,-39.23064 -9.68909,-79.79833 -27.19217,-117.70125 17.99542,-5.11645 53.71939,-1.03077 49.52321,27.63469 3.94406,30.84927 2.84633,61.64426 8.79827,92.44693 16.54081,14.60872 39.70069,3.44442 58.22787,3.60192 25.05265,-4.70568 51.80434,-3.4854 76.67977,-8.34602 5.8878,-21.98032 0.90401,-49.31294 1.53719,-73.48054 -2.82059,-24.80693 -7.05608,-56.48569 26.41249,-50.5564 23.60023,9.86207 6.83316,40.29853 13.59449,59.54174 1.40402,29.19557 7.06235,58.44761 13.99923,87.59208 -4.23716,20.85736 -38.91987,10.22061 -56.67724,13.1042 -33.02388,5.17688 -67.42348,5.54949 -100.05656,12.10159 -4.55778,23.36834 16.24874,45.00294 26.08867,66.4954 20.93393,40.09238 42.80887,80.30129 72.41918,115.64702 11.76599,23.40034 42.69593,52.58451 33.55168,76.5585 -6.66606,13.2566 14.74983,41.3959 -13.67964,28.3186 -49.41013,-6.798 -98.26993,-4.844 -146.7817,-3.5904 -57.17495,7.6725 -117.57422,0.4097 -174.63074,8.4497 -6.963635,0.397 -16.040665,7.6149 -22.769465,2.1883 z"
       id="path4262"
       inkscape:connector-curvature="0"
       inkscape:export-xdpi="90"
       inkscape:export-ydpi="90" />
  </g>
</svg>
