<?xml version="1.0" encoding="UTF-8" standalone="no"?>
<!-- Created with Inkscape (http://www.inkscape.org/) -->

<svg
   xmlns:dc="http://purl.org/dc/elements/1.1/"
   xmlns:cc="http://creativecommons.org/ns#"
   xmlns:rdf="http://www.w3.org/1999/02/22-rdf-syntax-ns#"
   xmlns:svg="http://www.w3.org/2000/svg"
   xmlns="http://www.w3.org/2000/svg"
   xmlns:sodipodi="http://sodipodi.sourceforge.net/DTD/sodipodi-0.dtd"
   xmlns:inkscape="http://www.inkscape.org/namespaces/inkscape"
   width="500"
   height="500"
   viewBox="0 0 500.00001 500.00001"
   id="svg5370"
   version="1.1"
   inkscape:version="0.91 r"
   sodipodi:docname="earth.svg">
  <defs
     id="defs5372" />
  <sodipodi:namedview
     id="base"
     pagecolor="#ffffff"
     bordercolor="#666666"
     borderopacity="1.0"
     inkscape:pageopacity="0.0"
     inkscape:pageshadow="2"
     inkscape:zoom="0.35"
     inkscape:cx="-309.28571"
     inkscape:cy="520"
     inkscape:document-units="px"
     inkscape:current-layer="layer1"
     showgrid="false"
     inkscape:window-width="1280"
     inkscape:window-height="977"
     inkscape:window-x="0"
     inkscape:window-y="0"
     inkscape:window-maximized="1"
     units="px" />
  <metadata
     id="metadata5375">
    <rdf:RDF>
      <cc:Work
         rdf:about="">
        <dc:format>image/svg+xml</dc:format>
        <dc:type
           rdf:resource="http://purl.org/dc/dcmitype/StillImage" />
        <dc:title></dc:title>
      </cc:Work>
    </rdf:RDF>
  </metadata>
  <g
     inkscape:label="Layer 1"
     inkscape:groupmode="layer"
     id="layer1"
     transform="translate(0,-552.36216)">
    <path
       id="path4224"
       style="display:inline;fill-opacity:1"
       d="m 323.01736,946.31217 c -10.32736,-4.04775 -13.28821,-6.44929 -18.6398,-15.11994 -10.04857,-16.27745 -7.72257,-30.83232 7.10201,-44.44011 11.4304,-10.49271 28.42947,-15.44413 41.06945,-11.96434 12.57222,3.46234 30.05665,17.38872 33.46076,26.65182 5.4411,14.80712 -4.38981,34.48221 -19.20948,38.44346 -2.95494,0.79282 -11.25252,3.64268 -18.43914,6.33815 l -13.06637,4.90125 -12.27743,-4.81029 z m -151.07464,5.62042 c 10.82108,-20.40607 22.14784,-40.57256 32.78052,-61.00876 9.59292,-17.77663 19.20515,-35.39325 30.39699,-52.09595 2.76177,-6.38442 3.73609,-31.14369 -8.6127,-27.88012 -25.0627,2.66101 -49.25402,8.72542 -75.12541,8.1762 -20.54345,1.10996 -65.271724,-5.08418 -51.616643,28.10357 6.815573,22.76566 19.204003,44.18223 28.458313,66.47205 7.77287,18.03898 11.73586,64.61829 40.22602,43.4527 l 1.63251,-2.28897 1.8604,-2.93058 0,0 z m -24.08335,98.08861 C 129.70681,1027.5005 128.34689,998.49748 115.30128,973.72092 94.380015,927.34774 73.177082,881.087 51.893135,834.8378 46.614781,814.07741 10.379989,787.35467 24.242786,771.05414 c 80.825984,5.70835 159.718184,-4.28703 239.850664,-3.78107 25.494,-11.95568 29.81303,-43.79288 45.41702,-64.85036 11.32028,-24.61657 25.51909,-47.58404 37.34129,-71.86041 -0.0721,-7.20031 1.75835,-27.78643 -11.18636,-22.55665 -81.43847,5.77755 -163.67266,8.3218 -243.789564,19.76575 -19.349881,3.39777 -47.293576,7.22208 -48.01995,-21.48258 -1.013377,-15.16462 -20.889263,-49.8299 -5.190566,-53.92666 61.003285,10.19287 120.85092,0.80724 181.75301,9.64366 52.35729,2.44912 104.81015,3.91224 157.28911,9.12184 11.98495,8.23098 4.03448,28.80701 6.1199,41.44756 -25.94563,6.10909 -13.56786,36.62572 -24.62809,55.08577 -7.13155,26.14296 -18.62192,50.43086 -29.84057,74.47514 -5.25558,33.26703 36.99043,22.82622 56.23465,23.36246 26.94372,-0.20182 53.58113,-4.0982 80.87802,-0.90815 18.08409,12.46756 18.25549,59.5096 -11.72635,52.05125 -23.28331,1.71251 -47.02517,-7.23908 -69.86637,-3.07472 -23.45643,7.45546 -46.75273,-6.79381 -70.06313,-1.65903 -27.41986,-3.03451 -28.35871,22.59558 -39.34816,39.13812 -8.26962,20.85857 -20.37637,39.48149 -32.19397,58.40974 -19.01805,37.99083 -52.50821,66.09727 -68.78193,105.9131 -9.21121,11.3806 -15.29651,26.5669 -23.28432,36.9933 l -3.34847,-2.3333 0,0 z"
       inkscape:connector-curvature="0"
       inkscape:export-xdpi="90"
       inkscape:export-ydpi="90" />
  </g>
</svg>
