<?xml version="1.0" encoding="UTF-8" standalone="no"?>
<!-- Created with Inkscape (http://www.inkscape.org/) -->

<svg
   xmlns:dc="http://purl.org/dc/elements/1.1/"
   xmlns:cc="http://creativecommons.org/ns#"
   xmlns:rdf="http://www.w3.org/1999/02/22-rdf-syntax-ns#"
   xmlns:svg="http://www.w3.org/2000/svg"
   xmlns="http://www.w3.org/2000/svg"
   xmlns:sodipodi="http://sodipodi.sourceforge.net/DTD/sodipodi-0.dtd"
   xmlns:inkscape="http://www.inkscape.org/namespaces/inkscape"
   width="500"
   height="500"
   viewBox="0 0 500.00001 500.00001"
   id="svg5370"
   version="1.1"
   inkscape:version="0.91 r"
   sodipodi:docname="water.svg">
  <defs
     id="defs5372" />
  <sodipodi:namedview
     id="base"
     pagecolor="#ffffff"
     bordercolor="#666666"
     borderopacity="1.0"
     inkscape:pageopacity="0.0"
     inkscape:pageshadow="2"
     inkscape:zoom="1.0759766"
     inkscape:cx="319.11778"
     inkscape:cy="334.12235"
     inkscape:document-units="px"
     inkscape:current-layer="layer1"
     showgrid="false"
     inkscape:window-width="1280"
     inkscape:window-height="977"
     inkscape:window-x="0"
     inkscape:window-y="0"
     inkscape:window-maximized="1"
     units="px" />
  <metadata
     id="metadata5375">
    <rdf:RDF>
      <cc:Work
         rdf:about="">
        <dc:format>image/svg+xml</dc:format>
        <dc:type
           rdf:resource="http://purl.org/dc/dcmitype/StillImage" />
        <dc:title></dc:title>
      </cc:Work>
    </rdf:RDF>
  </metadata>
  <g
     inkscape:label="Layer 1"
     inkscape:groupmode="layer"
     id="layer1"
     transform="translate(0,-552.36216)">
    <path
       style="display:inline;fill-opacity:1"
       d="m 308.27155,832.87619 c 9.95517,-19.45004 21.31375,-38.5309 33.41335,-56.69577 11.0892,-10.16932 38.19517,-44.82728 8.71033,-50.80936 -32.0875,0.68751 -64.27606,1.6955 -95.85,5.26548 -5.65976,25.66736 0.0458,54.31047 -5.39266,80.34748 -9.4047,29.49023 25.70025,23.86702 43.58679,24.33911 5.13875,-0.41251 11.35298,0.79406 15.53219,-2.44694 z m -79.75646,-0.36438 c 3.611,-31.69597 -1.29227,-64.91933 -2.67507,-97.34382 -31.11778,-0.50532 -61.18952,5.72254 -91.17738,10.63052 -12.59483,19.95455 17.84827,43.15836 23.24334,64.62038 5.26135,31.17243 35.54702,23.83528 57.7536,23.89773 4.30744,-0.36323 8.9639,0.0115 12.85551,-1.80481 z m 22.6836,98.1364 c 7.51063,-21.82147 31.69207,-37.98318 27.23637,-62.92317 -17.89526,-11.02159 -44.76094,-2.72503 -66.04662,-4.08239 -35.24119,-4.73793 -6.93668,33.76833 2.33534,48.63055 6.98285,15.23713 22.16992,37.47374 36.47491,18.37501 z m -0.93615,86.83269 c -18.42451,-16.2511 -26.43576,-41.44853 -39.98336,-61.53451 -17.4847,-29.30472 -33.27791,-59.69259 -52.38145,-88.04156 -25.41241,-5.01935 -51.16033,0.66115 -76.219711,2.36696 -24.68504,3.1844 -49.77158,7.00714 -71.19154,18.69562 -8.2714699,-14.22284 -19.9703699,-52.68625 2.69558,-53.68473 39.55711,-0.82271 79.56201,1.76344 118.935441,-0.37813 11.59108,-18.18114 -14.03916,-38.55862 -22.74318,-55.81874 C 93.929899,757.26732 88.962459,730.9922 74.173579,708.7242 c -11.12862,-15.43273 -5.56087,-21.8327 5.67327,-6.4898 48.783871,-0.79063 97.910451,0.41594 146.271721,-3.16309 6.58445,-17.0235 2.2431,-42.55611 7.40166,-62.37362 4.41011,-15.36227 1.70822,-40.90829 11.60643,-50.67771 11.12071,14.15948 29.06501,10.0513 43.09306,16.70209 -0.57292,10.6374 -29.17191,16.46399 -27.17254,34.77644 0.87657,17.32933 -21.00094,53.73217 6.12737,58.09002 41.34336,2.08096 81.53595,-4.52652 122.95539,-1.98012 20.40338,3.16549 42.13708,-6.6438 61.36047,3.48965 -4.72853,8.46787 -21.1492,19.04453 -28.41302,29.38962 -27.1432,27.70467 -49.09759,59.85015 -74.23535,89.30875 -13.0731,25.7266 20.70096,27.95469 36.63465,22.17943 36.28768,-0.53053 72.69637,-0.35636 108.84793,-1.75657 9.81056,5.62458 5.06919,34.4053 -0.52479,38.96517 -44.62539,-11.04211 -90.1648,-11.83595 -134.63367,-11.0177 -16.46295,12.25681 -52.54691,-11.55957 -55.60274,17.84964 5.54357,22.93936 -16.4774,34.74803 -23.80595,52.90934 -12.08299,20.23838 -18.17988,43.72189 -19.25949,68.11546 -2.59613,3.7172 -2.55992,20.2435 -10.23567,14.4396 z"
       id="path4254"
       inkscape:connector-curvature="0"
       inkscape:export-xdpi="90"
       inkscape:export-ydpi="90" />
  </g>
</svg>
